<mxfile host="app.diagrams.net" agent="Mozilla/5.0 (Windows NT 10.0; Win64; x64) AppleWebKit/537.36 (KHTML, like Gecko) Chrome/134.0.0.0 Safari/537.36" version="26.1.2">
  <diagram name="Página-1" id="Gj5CzNFe3FowefkB-zvI">
    <mxGraphModel dx="1221" dy="1063" grid="1" gridSize="10" guides="1" tooltips="1" connect="1" arrows="1" fold="1" page="1" pageScale="1" pageWidth="827" pageHeight="1169" math="0" shadow="0">
      <root>
        <mxCell id="0" />
        <mxCell id="1" parent="0" />
        <mxCell id="-QoFJ7MT6iAQllHARsJ3-2" value="" style="strokeWidth=2;html=1;shape=mxgraph.flowchart.start_1;whiteSpace=wrap;fillColor=#ffe6cc;strokeColor=#d79b00;" vertex="1" parent="1">
          <mxGeometry x="140" y="90" width="266.67" height="160" as="geometry" />
        </mxCell>
        <mxCell id="-QoFJ7MT6iAQllHARsJ3-6" value="&lt;div&gt;&lt;font style=&quot;font-size: 16px;&quot;&gt;&lt;b&gt;&lt;br&gt;&lt;/b&gt;&lt;/font&gt;&lt;/div&gt;&lt;font style=&quot;font-size: 16px;&quot;&gt;&lt;b&gt;&lt;div&gt;&lt;font style=&quot;font-size: 16px;&quot;&gt;&lt;b&gt;&lt;br&gt;&lt;/b&gt;&lt;/font&gt;&lt;/div&gt;Carrefour Database&lt;/b&gt;&lt;/font&gt;" style="strokeWidth=2;html=1;shape=mxgraph.flowchart.database;whiteSpace=wrap;fillColor=#dae8fc;strokeColor=#6c8ebf;" vertex="1" parent="1">
          <mxGeometry x="580" y="460" width="180" height="180" as="geometry" />
        </mxCell>
        <mxCell id="-QoFJ7MT6iAQllHARsJ3-7" value="&lt;b&gt;&lt;font style=&quot;font-size: 14px;&quot;&gt;Novo Registro Criado&lt;/font&gt;&lt;/b&gt;&lt;div&gt;&lt;b&gt;&lt;font style=&quot;font-size: 14px;&quot;&gt;&lt;br&gt;&lt;/font&gt;&lt;/b&gt;&lt;/div&gt;" style="strokeWidth=2;html=1;shape=mxgraph.flowchart.document2;whiteSpace=wrap;size=0.25;fillColor=#ffe6cc;strokeColor=#d79b00;" vertex="1" parent="1">
          <mxGeometry x="175" y="950" width="200" height="120" as="geometry" />
        </mxCell>
        <mxCell id="-QoFJ7MT6iAQllHARsJ3-9" value="&lt;h1 style=&quot;margin-top: 0px;&quot;&gt;[Post] /CashEntry&lt;/h1&gt;&lt;div&gt;&lt;span style=&quot;background-color: transparent; color: light-dark(rgb(0, 0, 0), rgb(255, 255, 255));&quot;&gt;Api para enviar o novo entrada no caixa.&lt;/span&gt;&lt;/div&gt;" style="text;html=1;whiteSpace=wrap;overflow=hidden;rounded=0;" vertex="1" parent="1">
          <mxGeometry x="170" y="130" width="270" height="125" as="geometry" />
        </mxCell>
        <mxCell id="-QoFJ7MT6iAQllHARsJ3-10" value="&lt;pre class=&quot;body-param__example microlight&quot; style=&quot;box-sizing: border-box; font-family: monospace; font-size: 12px; max-height: 400px; min-height: 6em; overflow: auto; overflow-wrap: break-word; background: rgb(51, 51, 51); border-radius: 4px; font-weight: 600; hyphens: auto; margin: 0px; padding: 0.5em; white-space: pre-wrap; word-break: break-word; font-style: normal; font-variant-ligatures: normal; font-variant-caps: normal; letter-spacing: normal; orphans: 2; text-align: start; text-indent: 0px; text-transform: none; widows: 2; word-spacing: 0px; -webkit-text-stroke-width: 0px; text-decoration-thickness: initial; text-decoration-style: initial; text-decoration-color: initial; display: block; color: white;&quot;&gt;&lt;code class=&quot;language-json&quot; style=&quot;box-sizing: border-box; font-family: Consolas, monaco, monospace; font-size: 1em; word-break: break-all; white-space: pre;&quot;&gt;&lt;span style=&quot;color: light-dark(white, rgb(18, 18, 18)); box-sizing: inherit;&quot;&gt;{&lt;br&gt;&lt;/span&gt;&lt;span style=&quot;color: light-dark(white, rgb(18, 18, 18)); box-sizing: inherit;&quot;&gt;  &lt;/span&gt;&lt;span class=&quot;hljs-attr&quot; style=&quot;color: light-dark(white, rgb(18, 18, 18)); box-sizing: inherit;&quot;&gt;&quot;value&quot;&lt;/span&gt;&lt;span style=&quot;box-sizing: inherit;&quot;&gt;&lt;font color=&quot;rgba(0, 0, 0, 0)&quot;&gt;: &lt;/font&gt;&lt;font color=&quot;#d36363&quot;&gt;16.75&lt;/font&gt;&lt;/span&gt;&lt;span style=&quot;color: light-dark(white, rgb(18, 18, 18)); box-sizing: inherit;&quot;&gt;,&lt;br&gt;&lt;/span&gt;&lt;span style=&quot;color: light-dark(white, rgb(18, 18, 18)); box-sizing: inherit;&quot;&gt;  &lt;/span&gt;&lt;span class=&quot;hljs-attr&quot; style=&quot;color: light-dark(white, rgb(18, 18, 18)); box-sizing: inherit;&quot;&gt;&quot;entryType&quot;&lt;/span&gt;&lt;span style=&quot;color: light-dark(white, rgb(18, 18, 18)); box-sizing: inherit;&quot;&gt;: &lt;/span&gt;&lt;span style=&quot;color: rgb(211, 99, 99); box-sizing: inherit;&quot;&gt;1&lt;/span&gt;&lt;span style=&quot;color: light-dark(white, rgb(18, 18, 18)); box-sizing: inherit;&quot;&gt;,&lt;br&gt;&lt;/span&gt;&lt;span style=&quot;color: light-dark(white, rgb(18, 18, 18)); box-sizing: inherit;&quot;&gt;  &lt;/span&gt;&lt;span class=&quot;hljs-attr&quot; style=&quot;color: light-dark(white, rgb(18, 18, 18)); box-sizing: inherit;&quot;&gt;&quot;transactionType&quot;&lt;/span&gt;&lt;span style=&quot;color: light-dark(white, rgb(18, 18, 18)); box-sizing: inherit;&quot;&gt;: &lt;/span&gt;&lt;span style=&quot;box-sizing: inherit;&quot;&gt;&lt;font color=&quot;#d36363&quot;&gt;2&lt;/font&gt;&lt;/span&gt;&lt;span style=&quot;color: light-dark(white, rgb(18, 18, 18)); box-sizing: inherit;&quot;&gt;&lt;br&gt;&lt;/span&gt;&lt;font color=&quot;rgba(0, 0, 0, 0)&quot;&gt;}&lt;/font&gt;&lt;/code&gt;&lt;/pre&gt;" style="text;whiteSpace=wrap;html=1;" vertex="1" parent="1">
          <mxGeometry x="319" y="290" width="190" height="110" as="geometry" />
        </mxCell>
        <mxCell id="-QoFJ7MT6iAQllHARsJ3-12" value="&lt;pre class=&quot;microlight&quot; style=&quot;box-sizing: border-box; font-family: monospace; font-size: 12px; max-height: 400px; min-height: 6em; overflow: auto; overflow-wrap: break-word; background: rgb(51, 51, 51); border-radius: 4px; color: white; font-weight: 600; hyphens: auto; margin: 0px; padding: 0.5em; white-space: pre-wrap; word-break: break-word; font-style: normal; font-variant-ligatures: normal; font-variant-caps: normal; letter-spacing: normal; orphans: 2; text-align: start; text-indent: 0px; text-transform: none; widows: 2; word-spacing: 0px; -webkit-text-stroke-width: 0px; text-decoration-thickness: initial; text-decoration-style: initial; text-decoration-color: initial; display: block;&quot;&gt;&lt;code class=&quot;language-json&quot; style=&quot;box-sizing: border-box; font-family: Consolas, monaco, monospace; font-size: 1em; word-break: break-all; white-space: pre;&quot;&gt;&lt;span style=&quot;box-sizing: inherit;&quot;&gt;{&#xa;&lt;/span&gt;&lt;span style=&quot;box-sizing: inherit;&quot;&gt;  &lt;/span&gt;&lt;span class=&quot;hljs-attr&quot; style=&quot;box-sizing: inherit;&quot;&gt;&quot;id&quot;&lt;/span&gt;&lt;span style=&quot;box-sizing: inherit;&quot;&gt;: &lt;/span&gt;&lt;span style=&quot;box-sizing: inherit; color: rgb(162, 252, 162);&quot;&gt;&quot;d63b16d4-410b-46b5-ddbf-08dd6b9f276c&quot;&lt;/span&gt;&lt;span style=&quot;box-sizing: inherit;&quot;&gt;,&#xa;&lt;/span&gt;&lt;span style=&quot;box-sizing: inherit;&quot;&gt;  &lt;/span&gt;&lt;span class=&quot;hljs-attr&quot; style=&quot;box-sizing: inherit;&quot;&gt;&quot;value&quot;&lt;/span&gt;&lt;span style=&quot;box-sizing: inherit;&quot;&gt;: &lt;/span&gt;&lt;span style=&quot;box-sizing: inherit; color: rgb(211, 99, 99);&quot;&gt;16.75&lt;/span&gt;&lt;span style=&quot;box-sizing: inherit;&quot;&gt;,&#xa;&lt;/span&gt;&lt;span style=&quot;box-sizing: inherit;&quot;&gt;  &lt;/span&gt;&lt;span class=&quot;hljs-attr&quot; style=&quot;box-sizing: inherit;&quot;&gt;&quot;dateCreated&quot;&lt;/span&gt;&lt;span style=&quot;box-sizing: inherit;&quot;&gt;: &lt;/span&gt;&lt;span style=&quot;box-sizing: inherit; color: rgb(162, 252, 162);&quot;&gt;&quot;2025-03-25T10:15:46.1621967-03:00&quot;&lt;/span&gt;&lt;span style=&quot;box-sizing: inherit;&quot;&gt;,&#xa;&lt;/span&gt;&lt;span style=&quot;box-sizing: inherit;&quot;&gt;  &lt;/span&gt;&lt;span class=&quot;hljs-attr&quot; style=&quot;box-sizing: inherit;&quot;&gt;&quot;entryType&quot;&lt;/span&gt;&lt;span style=&quot;box-sizing: inherit;&quot;&gt;: &lt;/span&gt;&lt;span style=&quot;box-sizing: inherit; color: rgb(211, 99, 99);&quot;&gt;1&lt;/span&gt;&lt;span style=&quot;box-sizing: inherit;&quot;&gt;,&#xa;&lt;/span&gt;&lt;span style=&quot;box-sizing: inherit;&quot;&gt;  &lt;/span&gt;&lt;span class=&quot;hljs-attr&quot; style=&quot;box-sizing: inherit;&quot;&gt;&quot;transactionType&quot;&lt;/span&gt;&lt;span style=&quot;box-sizing: inherit;&quot;&gt;: &lt;/span&gt;&lt;span style=&quot;box-sizing: inherit; color: rgb(211, 99, 99);&quot;&gt;2&lt;/span&gt;&lt;span style=&quot;box-sizing: inherit;&quot;&gt;&#xa;&lt;/span&gt;}&lt;/code&gt;&lt;/pre&gt;" style="text;whiteSpace=wrap;html=1;" vertex="1" parent="1">
          <mxGeometry x="300" y="800" width="400" height="140" as="geometry" />
        </mxCell>
        <mxCell id="-QoFJ7MT6iAQllHARsJ3-13" value="" style="rounded=1;whiteSpace=wrap;html=1;absoluteArcSize=1;arcSize=14;strokeWidth=2;fillColor=#ffe6cc;strokeColor=#d79b00;" vertex="1" parent="1">
          <mxGeometry x="190" y="460" width="170" height="170" as="geometry" />
        </mxCell>
        <mxCell id="-QoFJ7MT6iAQllHARsJ3-14" value="&lt;b&gt;Retorna nova entrada, com o ID gerado, e data de criação no momento da gravação do banco&lt;/b&gt;" style="text;html=1;align=center;verticalAlign=middle;whiteSpace=wrap;rounded=0;" vertex="1" parent="1">
          <mxGeometry x="100" y="830" width="160" height="50" as="geometry" />
        </mxCell>
        <mxCell id="-QoFJ7MT6iAQllHARsJ3-15" value="" style="endArrow=classic;html=1;rounded=0;exitX=0.5;exitY=1;exitDx=0;exitDy=0;exitPerimeter=0;entryX=0.5;entryY=0;entryDx=0;entryDy=0;" edge="1" parent="1" source="-QoFJ7MT6iAQllHARsJ3-2" target="-QoFJ7MT6iAQllHARsJ3-13">
          <mxGeometry width="50" height="50" relative="1" as="geometry">
            <mxPoint x="480" y="580" as="sourcePoint" />
            <mxPoint x="530" y="530" as="targetPoint" />
          </mxGeometry>
        </mxCell>
        <mxCell id="-QoFJ7MT6iAQllHARsJ3-16" value="" style="endArrow=classic;html=1;rounded=0;exitX=0.5;exitY=1;exitDx=0;exitDy=0;entryX=0.5;entryY=0;entryDx=0;entryDy=0;entryPerimeter=0;" edge="1" parent="1" source="-QoFJ7MT6iAQllHARsJ3-13" target="-QoFJ7MT6iAQllHARsJ3-7">
          <mxGeometry width="50" height="50" relative="1" as="geometry">
            <mxPoint x="390" y="570" as="sourcePoint" />
            <mxPoint x="440" y="520" as="targetPoint" />
          </mxGeometry>
        </mxCell>
        <mxCell id="-QoFJ7MT6iAQllHARsJ3-17" value="&lt;b&gt;Envia dados para da entrada do caixa para o Serviço&lt;/b&gt;" style="text;html=1;align=center;verticalAlign=middle;whiteSpace=wrap;rounded=0;" vertex="1" parent="1">
          <mxGeometry x="110" y="310" width="160" height="50" as="geometry" />
        </mxCell>
        <mxCell id="-QoFJ7MT6iAQllHARsJ3-18" value="" style="endArrow=classic;startArrow=classic;html=1;rounded=0;exitX=1;exitY=0.5;exitDx=0;exitDy=0;" edge="1" parent="1" source="-QoFJ7MT6iAQllHARsJ3-13" target="-QoFJ7MT6iAQllHARsJ3-6">
          <mxGeometry width="50" height="50" relative="1" as="geometry">
            <mxPoint x="390" y="570" as="sourcePoint" />
            <mxPoint x="440" y="520" as="targetPoint" />
          </mxGeometry>
        </mxCell>
        <mxCell id="-QoFJ7MT6iAQllHARsJ3-19" value="&lt;b&gt;&lt;font style=&quot;font-size: 16px;&quot;&gt;CashEntryService&lt;/font&gt;&lt;/b&gt;" style="text;html=1;align=center;verticalAlign=middle;whiteSpace=wrap;rounded=0;" vertex="1" parent="1">
          <mxGeometry x="198.34" y="510" width="150" height="70" as="geometry" />
        </mxCell>
        <mxCell id="-QoFJ7MT6iAQllHARsJ3-21" value="&lt;b&gt;Grava o novo registro no banco de dados&lt;/b&gt;" style="text;html=1;align=center;verticalAlign=middle;whiteSpace=wrap;rounded=0;" vertex="1" parent="1">
          <mxGeometry x="380" y="490" width="160" height="50" as="geometry" />
        </mxCell>
      </root>
    </mxGraphModel>
  </diagram>
</mxfile>
